<svg xmlns="http://www.w3.org/2000/svg" viewBox="0 0 100 100" width="100" height="100">
  <style>
    .hourglass {
      fill: none;
      stroke: #4a6fff;
      stroke-width: 3;
      stroke-linecap: round;
      stroke-linejoin: round;
    }
    .sand {
      fill: #ffa000;
      opacity: 0.8;
    }
    .sand-drop {
      fill: #ffa000;
    }
    .glass {
      fill: none;
      stroke: #333;
      stroke-width: 3;
      stroke-linecap: round;
      stroke-linejoin: round;
    }
  </style>
  
  <!-- Top stand -->
  <path class="glass" d="M25,20 H75" />
  
  <!-- Hourglass frame -->
  <path class="glass" d="M30,20 L30,40 C30,50 70,50 70,40 L70,20" />
  <path class="glass" d="M30,80 L30,60 C30,50 70,50 70,60 L70,80" />
  
  <!-- Bottom stand -->
  <path class="glass" d="M25,80 H75" />
  
  <!-- Sand in top half -->
  <path class="sand" d="M33,22 L33,38 C33,44 67,44 67,38 L67,22 Z" />
  
  <!-- Sand in bottom half -->
  <path class="sand" d="M33,78 L33,62 C33,56 50,52 50,52 C50,52 67,56 67,62 L67,78 Z" />
  
  <!-- Sand drop -->
  <circle class="sand-drop" cx="50" cy="50" r="3" />
  
  <!-- Small sand drops in bottom -->
  <circle class="sand-drop" cx="45" cy="70" r="2" />
  <circle class="sand-drop" cx="55" cy="68" r="1.5" />
  <circle class="sand-drop" cx="40" cy="72" r="1" />
  
  <!-- Small sand particles in top -->
  <circle class="sand-drop" cx="38" cy="28" r="1.5" />
  <circle class="sand-drop" cx="60" cy="32" r="2" />
  <circle class="sand-drop" cx="55" cy="25" r="1" />
</svg> 