<?xml version="1.0" standalone="no"?><!DOCTYPE svg PUBLIC "-//W3C//DTD SVG 1.1//EN" "http://www.w3.org/Graphics/SVG/1.1/DTD/svg11.dtd"><svg t="1732084287524" class="icon" viewBox="0 0 1024 1024" version="1.1" xmlns="http://www.w3.org/2000/svg" p-id="5750" xmlns:xlink="http://www.w3.org/1999/xlink" width="200" height="200"><path d="M512.792039 960.628694l-0.908696 0.373507-0.903579-0.376577-13.564947-5.275144c-3.514033-1.366114-87.116103-34.289967-174.49929-105.717763-51.755758-42.304502-94.228081-89.487104-126.240169-140.236951-40.553625-64.287165-64.257489-134.273123-70.457702-208.014614l-0.129959-2.028193V65.183582h771.596409l-0.035816 435.05556-0.09005 1.101077c-6.202259 73.777307-29.90817 143.767358-70.460772 208.054523-32.010041 50.749848-74.482365 97.931426-126.240169 140.237975-87.340207 71.394027-170.982186 104.350626-174.49929 105.717763l-13.56597 5.278214z m-0.904603-23.760147l0.913813 0.356111 5.65479-2.198062c3.38612-1.316995 83.905992-33.047674 168.601976-102.278431 49.932226-40.815591 90.844008-86.231967 121.597429-134.988414 38.667671-61.299111 61.266365-127.990023 67.171865-198.220551l0.051165-0.630356V86.99126h-727.980029v411.91656l0.055258 0.670266c5.901407 70.196759 28.501124 136.8846 67.168796 198.183712 30.755468 48.756447 71.665203 94.173846 121.596406 134.98739 84.735893 69.26248 165.215856 100.961436 168.600952 102.276385l5.655813 2.200108 0.911766-0.357134z" p-id="5751" fill="#FF6B01"></path><path d="M823.954895 492.310565H548.455283c-10.426467 5.664-24.788569 8.604982-36.56887 8.604982-11.780301 0-26.142403-2.939959-36.567847-8.604982H199.818955V158.703535h22.311145v4.338818h-17.969257v324.928371h272.845155l0.032746 0.054235h0.540305c9.42465 5.566786 23.396873 8.422833 34.308387 8.422833 10.912537 0 24.883737-2.856048 34.308387-8.422833h0.540306l0.032746-0.054235h272.845155V163.042353h-18.536169v-4.338818h22.878057v333.60703z" p-id="5752" fill="#FF6B01"></path><path d="M234.326886 153.812131l-14.382568 10.988262v309.323975l219.602533-0.310062c13.283538 0.104377 27.542286-0.571005 39.853683 0.310062v4.391007c-10.187013-0.815575-26.400277-0.336668-39.699164-0.310062l-224.146013 0.310062V162.628938l17.309225-13.22214 1.462304 4.405333zM437.156408 268.220834h-54.066383c0 1.524726-0.057305 2.993171 0.013303 4.455475 0.096191 1.994424-0.530073 3.351328-2.470261 4.317329-7.108908 3.536546-14.629185 4.967128-22.50762 4.897544-1.795902-0.01535-2.359744-0.945535-2.367931-2.556219-0.024559-4.14439-0.095167-8.286734-0.127913-12.431124-0.11154-14.617929-0.197498-29.235858-0.327458-43.852764-0.098237-11.07422-0.25992-22.146393-0.372483-33.220612-0.027629-2.6432 0.51677-3.098571 3.016706-2.837628 7.865131 0.816598 15.47546 2.396583 22.103414 7.099698 0.547469 0.388856 1.413186 0.463558 2.130524 0.464581 17.787108 0.024559 35.576263 0.023536 53.364395 0.004094a7.275707 7.275707 0 0 0 2.194991-0.354064c7.449669-2.388397 14.877849-4.843308 22.335705-7.204076 2.835581-0.89744 3.382027-0.435928 3.405563 2.470261 0.153496 18.835997 0.287549 37.674041 0.460488 56.510038 0.092098 10.16757 0.25992 20.337187 0.37146 30.505781 0.032746 2.963495-0.324388 3.27151-3.339048 3.529383-7.252171 0.620124-14.069437-0.683569-20.437472-4.315282-2.307555-1.315972-3.784186-2.920516-3.317558-5.764284 0.079818-0.49528-0.030699-1.022283-0.062422-1.718131z m0.070608-33.79264h-54.248531v26.176172H421.898913c4.444219 0 8.887414-0.00614 13.331633 0.00307 1.019213 0.002047 2.00568 0.072655 2.00261-1.419326-0.013303-8.195659-0.00614-16.388249-0.00614-24.759916z m-0.621147-7.743358v-26.158777H382.526183c0 8.039093 0.068562 15.873526-0.047072 23.705912-0.028653 2.025123 0.589424 2.5071 2.556219 2.496867 16.501836-0.077771 33.004695-0.044002 49.507554-0.044002h2.062985z" p-id="5753" fill="#FF6B01"></path><path d="M299.456233 308.673152c-0.004093-0.935302-0.134053-2.400676-1.483794-2.66776-0.686638-0.137123-1.962701 0.25685-2.734274 0.799202-6.219655 4.375657-12.377912 8.839319-18.561752 13.265119-1.052982 0.753153-2.148943 1.633197-3.37691 0.310062-1.171686-1.261737-0.294712-2.323928 0.373507-3.440356 9.05626-15.102976 18.35402-30.070876 27.059286-45.372373 6.964622-12.243859 12.331863-25.279756 16.971533-38.59297 0.992607-2.847861 1.636267-3.103688 4.261047-1.723248 9.788947 5.152347 19.575848 10.308787 29.361725 15.470343 2.361791 1.24434 2.635013 2.514263 1.030469 4.669346-1.581008 2.124384-3.823072 2.916423-6.333242 2.854001-2.178619-0.053212-3.50994 0.797156-4.826935 2.582825-5.716188 7.756661-11.615549 15.377222-17.50263 23.008017-1.721201 2.232854-1.364067 3.544733 1.437745 4.018523 1.696642 0.287549 3.459798 0.164752 5.167697 0.405229 2.305509 0.326435 3.02694 1.375324 1.981121 3.3984-0.902556 1.740644-2.176572 3.436262-3.678786 4.677533-1.530866 1.261737-2.299369 2.412956-2.27174 4.490267 0.260943 18.606777 0.38067 37.214577 0.576121 55.8234 0.171915 16.34527 0.355087 32.689517 0.623194 49.033763 0.031722 1.90028-0.602727 3.072989-2.128477 4.107551-6.985088 4.735861-14.853289 5.895267-23.033599 5.878894-1.935072-0.004093-2.342348-1.278109-2.361791-2.87549-0.051165-4.143367-0.156566-8.28571-0.163729-12.428054-0.022513-12.582573-0.007163-25.165146-0.007163-37.746695-0.103354-9.086959-0.317225-33.296337-0.378623-49.945529z" p-id="5754" fill="#FF6B01"></path><path d="M425.934832 330.269006h-90.338494c-0.138146-1.635243-0.328481-3.172249-0.343831-4.710279-0.00307-0.300852 0.64059-0.773619 1.056052-0.871857 0.642636-0.154519 1.345648-0.062422 2.024099-0.062421l84.341921-0.001024c3.010567-0.001023 3.198855-0.134053 3.172249-3.178389-0.068562-7.909134-0.191358-15.818267-0.300852-23.726377-0.004093-0.363274-0.089028-0.725524-0.168846-1.331322H346.853729v-5.50334h131.482567v5.336541h-24.670889c0 2.462075-0.021489 4.678556 0.004093 6.896061 0.071631 6.02625 0.168846 12.0525 0.24457 18.077727 0.039909 3.224438 0.233314 3.428076 3.479241 3.429099H489.653039v5.560646h-35.624358c0 3.63069 0.005117 6.989181-0.001024 10.347672-0.027629 13.70514 0.332575 27.424606-0.221034 41.107234-0.391926 9.657964-3.885494 18.268062-12.694113 23.703865-5.099135 3.145643-10.788717 4.51585-16.636912 5.366217-0.670266 0.097214-1.348718 0.154519-2.01489 0.274246-1.648546 0.291642-2.577708-0.3776-2.910283-2.013866-0.391926-1.916653-0.88823-3.810792-1.263783-5.730515-1.635243-8.372691-6.351662-14.297634-14.049994-17.928325-1.432629-0.676405-3.505847-1.180895-2.960425-3.36463 0.572028-2.291183 2.663666-1.438769 4.205788-1.40193 3.462868 0.083911 6.919597 0.379647 10.380418 0.423649 7.214309 0.092098 10.438747-3.013637 10.421351-10.259668-0.025583-11.148921-0.228197-22.297842-0.345878-33.447786-0.023536-2.242064-0.00307-4.485151-0.00307-6.991228zM346.19165 192.393845c-0.028653 3.446495-3.308349 6.866385-6.444782 6.593162-3.855818-0.336668-5.763261 1.605567-7.829316 4.366447-14.675234 19.617803-32.293497 36.098149-53.095266 49.102325-0.814552 0.508583-2.142803 1.049912-2.840698 0.727571-1.89107-0.873903-1.195222-2.375094-0.390902-3.79135 5.199419-9.16166 10.503215-18.269086 15.522531-27.530006 7.751544-14.302751 14.612813-29.02301 19.973914-44.411489 0.887206-2.545986 1.74269-2.845815 4.221138-1.576915 9.577123 4.898567 19.166525 9.776667 28.721135 14.722306 0.948605 0.49221 1.685385 1.39272 2.162246 1.797949z" p-id="5755" fill="#FF6B01"></path><path d="M397.516596 364.18035c-0.118704 4.350075-2.789533 9.82067-8.626472 13.492292-3.312442 2.084475-6.700609 4.063549-10.811229 4.167926-1.527796 0.038886-2.355651-0.590448-2.763951-2.056845-3.88447-13.950733-9.092076-27.41335-14.9372-40.647769-0.427742-0.969071-0.554632-2.489704-0.065492-3.295046 0.323365-0.533143 2.039449-0.472767 3.061732-0.285503 8.260128 1.505283 16.320711 3.64604 23.502274 8.219196 6.564509 4.180206 10.733459 9.829879 10.640338 20.405749zM718.039633 232.286414c-0.083911-15.82236-0.282433-31.643698-0.442068-47.464012-0.013303-1.354857-0.185218-2.711761-0.130983-4.061502 0.067538-1.707898 0.865717-2.623757 2.77009-2.324952 10.636245 1.667989 21.278629 3.28686 31.91692 4.941546 2.693342 0.418532 3.326768 1.409093 2.626827 4.019547-0.820692 3.053546-2.732228 5.199419-5.677303 6.275937-2.109034 0.77055-2.726088 2.097778-2.699482 4.292769 0.226151 18.535145 0.334621 37.071314 0.50142 55.604412 0.130983 14.541181 0.308015 29.081339 0.444115 43.621497 0.162706 17.479093 0.355087 34.958186 0.436952 52.439326 0.048095 9.937326 0.016373 19.87977-0.222057 29.814026-0.070608 2.972705-0.780783 5.968945-1.5104 8.878205-2.217505 8.858762-8.179286 14.278191-16.662495 16.82827-5.963829 1.793856-12.124132 2.931772-18.195408 4.370541-1.684362 0.399089-2.599198-0.376577-2.949168-1.942235a45.264926 45.264926 0 0 1-0.635473-3.551896c-1.006933-7.236821-4.755304-12.786211-10.685364-16.832364-2.784416-1.90028-5.860475-3.367701-8.806573-5.02648-1.238201-0.696872-3.203972-0.842181-2.674922-2.982937 0.515746-2.085498 2.348488-1.520633 3.76372-1.494027 5.872754 0.112564 11.745509 0.298805 17.61724 0.475837 7.754614 0.234337 12.279674-3.669576 12.328793-11.394514 0.081864-13.408381-0.213871-26.818809-0.334622-40.229237-0.073678-8.137331-0.143263-16.276708-0.168845-24.415063-0.028653-9.265014-0.491187-18.531052-0.491187-27.796066-0.196475 0-0.047072-28.031427-0.119727-42.046628zM665.547095 198.60736v7.176447c-0.88516 0.037862-1.750877 0.110517-2.616594 0.110517-15.977903 0.00614-31.956829 0.028653-47.934732-0.031723-1.635243-0.00614-2.550079 0.502443-3.402493 1.904373-8.492418 13.975293-17.175171 27.825742-28.108175 40.092114-1.452071 1.629103-3.039219 3.145643-4.406356 4.845354-0.475837 0.589424-0.853437 1.757017-0.577145 2.311649 0.290619 0.578168 1.437745 1.060145 2.183735 1.026376 6.01704-0.278339 12.028964-0.680499 18.040889-1.059122 8.491395-0.537236 16.981766-1.102101 25.475207-1.62194 3.229554-0.197498 3.920286-1.136893 2.576685-4.133134-3.111874-6.931876-6.307659-13.824867-9.517771-20.710694-0.573051-1.226944-1.240247-2.565429 0.060376-3.428076 0.708128-0.469698 2.127454-0.309038 3.042289 0.044002 8.641821 3.343141 17.151635 6.982018 24.99323 11.992126 5.955642 3.803629 11.438517 8.165983 15.173585 14.285354 4.547573 7.452739 4.951779 15.233959 0.953721 23.028483-3.971451 7.745405-11.034311 10.727319-19.186991 11.719926-1.88493 0.230244-3.145643-0.522909-3.741208-2.682086-1.499144-5.434779-3.272533-10.79588-5.000897-16.165168-0.831948-2.587941-1.461281-2.8847-3.961218-2.121313-20.649296 6.305613-41.292452 12.632715-61.950957 18.905582-1.803066 0.547469-2.739391 1.363044-2.878561 3.406586-0.229221 3.342118-1.766226 6.069229-4.959965 7.532557-2.343371 1.075495-3.634784 0.48914-4.501524-1.938142-3.717671-10.414187-7.429203-20.830421-11.127432-31.251771-0.935302-2.63706-0.355087-3.514033 2.470262-3.870144 0.373507-0.048095 0.76748-0.13917 1.124613-0.071632 4.616134 0.880043 7.253194-1.515516 9.755178-5.104251 9.577123-13.737886 16.067954-28.714995 19.027356-45.207621 0.077771-0.434905 0.072655-0.88516 0.128936-1.6465h-35.319413v-7.342222c41.391712 0.004093 82.654488 0.004093 124.18537 0.004093z" p-id="5756" fill="#FF6B01"></path><path d="M588.514651 324.687894H546.971489v-7.421017h41.564651c0-3.882424 0.016373-7.53358-0.003069-11.184737-0.036839-7.007601-0.107447-14.015202-0.134054-21.022802-0.007163-2.363837 0.669242-2.994194 3.010567-2.689249 9.407254 1.226944 18.809391 2.499937 28.211529 3.762697 1.417279 0.188288 2.825348 0.484024 4.247744 0.592494 1.736551 0.134053 2.162246 1.14508 1.947352 2.625804-0.460488 3.192715-1.876744 5.79396-5.076622 6.880711-2.39249 0.814552-3.163039 2.232854-3.075036 4.727674 0.184195 5.259794 0.056282 10.531867 0.056282 16.059768h45.766347v7.670703h-2.6432c-13.490246 0-26.981515 0.038886-40.469714-0.041955-1.958608-0.01228-2.592035 0.464581-2.544962 2.503007 0.228197 9.787924 0.303922 19.580964 0.424672 29.372981 0.035816 2.928702 0.390903 3.350304 3.282766 3.127223 11.787464-0.911766 23.569812-1.874697 35.355229-2.814092 1.190105-0.094144 2.496867-0.423649 2.997264 1.191129 0.538259 1.740644-0.608867 2.378164-1.914606 3.028986-27.39493 13.641695-56.04955 23.804149-85.743849 31.101345-3.360538 0.824785-6.735401 1.588171-10.106172 2.366908-2.687202 0.621147-3.13848 1.212618-3.03922 4.074805 0.130983 3.816932-1.443885 6.260587-4.939499 7.665587-2.075265 0.832971-3.037173 0.432859-3.76372-1.734504a9354.095171 9354.095171 0 0 1-11.550057-34.662451c-0.803295-2.429329-0.189312-3.320629 2.37407-3.539616 14.104229-1.201361 28.208459-2.372024 42.314735-3.553943 6.401804-0.537236 5.474688-0.231267 5.456268-5.822612-0.032746-10.019191-0.169869-20.039405-0.275269-30.058596-0.00614-0.661056-0.109494-1.319042-0.187265-2.206248zM672.956855 215.392652c-0.001023-1.730411-0.097214-3.461845-0.113587-5.192256-0.019443-1.821485 0.923022-2.659573 2.712785-2.404769 10.285251 1.461281 20.565385 2.947122 30.848589 4.424776 1.721201 0.245593 2.012843 1.413186 1.701758 2.826371-0.677429 3.081175-2.427282 5.259794-5.455245 6.393617-3.502777 1.311879-3.475148 1.350764-3.443426 4.89959 0.075725 8.436136 0.137123 16.873296 0.203638 25.308409 0.150426 18.681478 0.297782 37.362956 0.454348 56.044434 0.098237 11.750625 0.165776 23.500227 0.361227 35.249829 0.031722 1.907443-0.6191 3.048429-2.166339 4.03592-6.547113 4.181229-13.872962 5.63944-21.442358 6.272867-1.935072 0.160659-2.418073-1.072425-2.436492-2.731205-0.065492-5.798053-0.223081-11.596106-0.234337-17.393135-0.032746-17.625426-0.01228-35.252899-0.01228-52.878325-0.324388 0.001023-0.970094-43.236733-0.978281-64.856123zM513.582031 451.243241l0.002047-284.963147c0.629333-19.980054-9.504468-26.013467-27.370371-25.432229l-240.845347 0.221034v305.007669l2.175549-0.024559c1.490957-0.014326 149.294235-1.574868 198.178595-2.344395l3.281743-0.053212c7.207146-0.118704 17.695011-0.294712 26.500561-0.327458 7.108908-0.025583 19.230993-0.713244 25.388227 1.90335 5.484921 2.329045 6.722098 5.997598 6.77224 6.011924h5.916756v0.001023z m-42.095747-12.193717c-7.861038 0.060375-16.396435 0.200568-22.552645 0.302899l-3.278673 0.053212c-45.624107 0.718361-177.382966 2.12336-195.981557 2.320858V145.368832l236.645699-0.220011c15.809057 0 23.221888 4.251837 22.961967 21.094434v279.485389c-6.004761-5.339612-11.881608-6.64842-22.681581-6.635117-5.02034-0.116657-10.088776-0.081864-15.11321-0.044003z" p-id="5757" fill="#FF6B01"></path><path d="M509.62593 451.243241l-0.001024-284.963147c-0.630357-19.980054 9.503445-26.013467 27.369348-25.432229l240.845347 0.221034v305.007669l-2.173503-0.024559c-1.49198-0.014326-149.295258-1.574868-198.179618-2.344395l-3.282766-0.053212c-7.207146-0.118704-17.695011-0.294712-26.500561-0.327458-7.109931-0.025583-19.230993-0.713244-25.387203 1.90335-5.484921 2.329045-6.722098 5.997598-6.773264 6.011924h-5.916756v0.001023z m42.094723-12.193717c7.861038 0.060375 16.396435 0.200568 22.552646 0.302899l3.279696 0.053212c45.623084 0.718361 177.382966 2.12336 195.981557 2.320858V145.368832l-236.644675-0.220011c-15.810081 0-23.222911 4.251837-22.961968 21.094434v279.485389c6.003737-5.339612 11.881608-6.64842 22.680558-6.635117 5.02034-0.116657 10.089799-0.081864 15.112186-0.044003zM340.448856 462.764646l-109.802802 0.134053 0.019443-311.898613 13.732769-10.003841 0.75827 0.030699 2.11722 0.086981-1.286295 4.041036-10.987239 8.046257-0.019443 305.362756 102.210893-0.12689c45.279253-0.520863 91.728144-1.198292 135.546116-0.921999 6.105045 0.038886 11.675924 1.071402 14.836916 2.435469l-2.185782 3.931542c-3.326768-1.855254-10.152221-2.236947-14.176884-2.245134-43.802622-0.082888-87.082334 0.76441-130.763182 1.127684z" p-id="5758" fill="#FF6B01"></path><path d="M544.507368 478.327086c-2.818185 2.226714-6.702656 4.545526-12.100596 6.297427-5.315052 1.722224-12.106736 2.904143-20.802791 2.904143-8.202822 0-14.851243-1.283226-20.212345-3.054569-5.377474-1.778506-9.456373-4.049223-12.517081-6.014994l-1.040702-0.667196v-1.227967c0-6.305613 3.714602-14.040784 10.778484-19.6352 5.611811-4.443196 13.344936-7.573489 22.99062-7.573489 9.642614 0 17.376763 3.131317 22.988574 7.573489 7.063883 5.593392 10.777461 13.329587 10.777461 19.6352v1.079588l-0.861624 0.683568z m-13.475919 2.012844c4.242627-1.37737 7.405667-3.123131 9.78076-4.849449-0.401136-4.878101-3.483334-10.663874-9.005094-15.035438-4.880147-3.862981-11.663644-6.587022-20.202111-6.587022-8.53949 0-15.32401 2.723018-20.204158 6.587022-5.469572 4.332678-8.547677 10.051937-8.993838 14.900362a49.514717 49.514717 0 0 0 10.396791 4.834099c4.957919 1.638313 11.133571 2.824325 18.801205 2.824325 8.204869 0 14.532995-1.086751 19.426445-2.673899z" p-id="5759" fill="#FF6B01"></path><path d="M789.447986 153.812131l14.382569 10.988262v309.323975l-219.602534-0.310062c-13.283538 0.104377-27.541263-0.571005-39.853683 0.310062v4.391007c10.187013-0.815575 26.400277-0.336668 39.698141-0.310062l224.146013 0.310062V162.628938l-17.309224-13.22214-1.461282 4.405333z" p-id="5760" fill="#FF6B01"></path><path d="M683.326017 462.764646l109.802802 0.134053-0.019443-311.898613-13.732769-10.003841-0.75827 0.030699-2.117221 0.086981 1.285273 4.041036 10.987238 8.046257 0.019443 305.362756-102.210893-0.12689c-45.279253-0.520863-91.728144-1.198292-135.546115-0.921999-6.105045 0.038886-11.675924 1.071402-14.836917 2.435469l2.185782 3.931542c3.326768-1.855254 10.152221-2.236947 14.176884-2.245134 43.802622-0.082888 87.083357 0.76441 130.764206 1.127684z" p-id="5761" fill="#FF6B01"></path><path d="M512.803295 923.003771l-0.914835 0.38374-0.917906-0.38374-0.847298-0.329504c-0.793062-0.308015-80.20674-31.590486-162.322969-97.995895-48.255027-39.023782-88.016613-82.373079-118.179586-128.845507-37.737486-58.143235-60.467163-121.353882-67.556628-187.875948-0.339738-3.182482-0.889253-19.698644-0.91279-20.399609l-0.001023-387.312186h701.476399v392.557654c-0.016373 0.479931-0.36532 9.723455-0.571005 11.802813-6.612605 67.071581-29.063943 130.800022-66.73082 189.416024-30.104645 46.850028-69.939909 90.550319-118.396527 129.885186-82.45699 66.935482-162.477488 98.458429-163.276691 98.768491l-0.848321 0.328481zM165.822676 104.917538v382.563022c0.194428 5.805216 0.63138 17.570167 0.887207 19.9821 7.008624 65.757656 29.478382 128.255059 66.786079 185.757705 29.876448 46.049802 69.287039 89.026616 117.133767 127.736242 77.004815 62.299905 151.585417 93.477998 160.338778 97.022731l0.918929-0.35918 0.918929 0.35918c8.78713-3.559059 83.940784-34.977629 161.28636-97.79021 48.045249-39.018665 87.527472-82.340333 117.346615-128.763642 37.235043-57.96825 59.428507-120.979352 65.965388-187.278338 0.153496-1.553379 0.426719-8.15882 0.549515-11.4334l-0.002047-387.79621H165.822676z" p-id="5762" fill="#FF6B01"></path><path d="M596.866876 591.286788c-44.271296 0-80.160691 35.889395-80.160691 80.160691 0 44.271296 35.888372 80.160691 80.160691 80.160691 44.271296 0 80.160691-35.889395 80.160691-80.160691-0.001023-44.271296-35.889395-80.160691-80.160691-80.160691z m0 149.824307c-38.474266 0-69.663616-31.18935-69.663616-69.663616s31.18935-69.663616 69.663616-69.663616 69.663616 31.18935 69.663616 69.663616c-0.001023 38.474266-31.190373 69.663616-69.663616 69.663616z" p-id="5763" fill="#FF6B01"></path><path d="M596.866876 621.520369c-27.574009 0-49.928133 22.353101-49.928132 49.92711 0 27.575032 22.354124 49.928133 49.928132 49.928132 27.574009 0 49.928133-22.353101 49.928133-49.928132-0.001023-27.572986-22.354124-49.927109-49.928133-49.92711z m18.36016 39.458687c-2.721994-0.010233-5.442966-0.039909-8.16496-0.033769-0.928139 0.001023-1.14508-0.25071-0.736781-1.163499 1.279133-2.869351 2.479471-5.771447 3.761674-8.78406 2.88163 2.365884 4.694929 5.240351 6.05081 8.468882 0.450255 1.069355 0.228197 1.51654-0.910743 1.512446z m11.69025-0.056282c-1.136893 0.242524-2.27481 0.364297-2.750647-1.322111-1.316995-4.657067-3.629667-8.822946-6.729262-12.539594-0.801249-0.959861-1.579985-1.995447-2.569521-2.726088-1.318018-0.975211-1.079588-1.937119-0.312109-2.970658 0.8913-1.198292 1.912559-0.720408 2.873444-0.047072 1.6465 1.153266 2.963495 2.645247 4.205788 4.205788 2.964518 3.722788 5.074575 7.90504 6.578836 12.405541 0.137123 0.416486 0.207731 0.852414 0.156566 0.632404 0.332575 1.605567 0.021489 1.863441-1.453095 2.36179zM428.152337 591.286788c-44.271296 0-80.160691 35.889395-80.160691 80.160691 0 44.271296 35.888372 80.160691 80.160691 80.160691s80.160691-35.889395 80.160691-80.160691c0-44.271296-35.889395-80.160691-80.160691-80.160691z m0 149.824307c-38.474266 0-69.663616-31.18935-69.663616-69.663616s31.18935-69.663616 69.663616-69.663616 69.663616 31.18935 69.663616 69.663616-31.18935 69.663616-69.663616 69.663616z" p-id="5764" fill="#FF6B01"></path><path d="M428.152337 621.520369c-27.574009 0-49.928133 22.353101-49.928133 49.92711 0 27.575032 22.353101 49.928133 49.928133 49.928132s49.928133-22.353101 49.928132-49.928132c0-27.572986-22.354124-49.927109-49.928132-49.92711z m18.36016 39.458687c-2.723018-0.010233-5.442966-0.039909-8.164961-0.033769-0.927115 0.001023-1.144056-0.25071-0.73678-1.163499 1.280156-2.869351 2.479471-5.771447 3.762697-8.78406 2.88163 2.365884 4.693906 5.240351 6.050809 8.468882 0.449231 1.069355 0.228197 1.51654-0.911765 1.512446z m11.691273-0.056282c-1.136893 0.242524-2.27481 0.364297-2.751671-1.322111-1.316995-4.657067-3.628644-8.822946-6.729261-12.539594-0.801249-0.959861-1.581008-1.995447-2.569522-2.726088-1.318018-0.975211-1.079588-1.937119-0.312108-2.970658 0.892323-1.198292 1.913583-0.720408 2.873443-0.047072 1.645476 1.153266 2.963495 2.645247 4.205789 4.205788 2.965541 3.722788 5.074575 7.90504 6.579859 12.405541 0.137123 0.416486 0.206708 0.852414 0.155542 0.632404 0.332575 1.605567 0.021489 1.863441-1.452071 2.36179z" p-id="5765" fill="#FF6B01"></path><path d="M731.033575 657.07719c-0.645706-6.144954-0.942465-10.1645-2.451841-16.34527l-0.680499-2.997264c-4.709255-19.270902-14.405081-36.887119-27.251667-52.696176-0.407276-0.499373-1.158383-2.037403-1.488911-4.227278-0.331551-2.190899-0.242524-5.033643-0.299829-5.999644-0.148379-2.52552-0.323365-5.040806-0.22615-7.628748 0.299829-7.983835 0.61296-16.236799 0.598634-24.333198-0.019443-6.969739-0.617054-14.676257-1.88186-24.252357-0.800225-6.05081-5.936199-7.471159-8.92323-7.780197a18.87386 18.87386 0 0 0-1.852185-0.096191c-2.716878 0-5.075599 0.645706-7.215332 1.980098a800.443411 800.443411 0 0 0-13.525038 8.610098 3817.379305 3817.379305 0 0 0-10.444886 6.859222c-5.907547 3.89061-11.69025 7.984858-17.766642 11.615548-3.063779 1.830695-5.240351 1.568728-5.550413 1.511423-3.417843-0.627287-6.590092-1.61887-9.988492-2.35565-3.012613-0.655939-20.454868-3.364631-30.772864-2.64934-7.03216 0-46.170552 1.091868-78.657454 26.325575 0 0-10.576893-8.082072-25.647123-14.679327-9.092076-3.979638-19.597337-7.249101-29.830399-9.194407-7.528464-1.430582-15.143908-1.99954-20.738324-2.349511-3.363607-0.210801-6.600325-0.102331-9.909697-0.10233-9.175987 0-17.350157 0.935302-25.908066 2.942005 0 0-7.772011 1.633197-11.1919 2.260484-0.309038 0.057305-0.858554-0.164752-1.194198-0.164753-1.415232 0-3.045359-0.502443-4.355192-1.346671-5.949502-3.835352-11.860119-7.723915-17.767665-11.614525a3526.302927 3526.302927 0 0 0-10.443863-6.859221 779.86063 779.86063 0 0 0-13.525038-8.610099c-2.139733-1.334391-4.497431-1.981121-7.216356-1.981121-0.61296 0-1.228991 0.034792-1.85116 0.097214-2.987031 0.309038-8.124028 1.728364-8.923231 7.781221-1.264806 9.576099-1.862417 17.283642-1.88186 24.252357-0.014326 8.096399 0.407276 16.346293 0.598634 24.332174 0.24457 10.16757-0.840134 15.69547-1.667989 18.086938-1.554402 2.013867-5.585205 7.254218-6.428409 8.537443-21.681812 32.943296-28.461215 68.359924-20.145829 105.271602 8.568143 38.031175 30.413684 67.491137 64.929801 87.549985 5.203512 3.031033 10.815323 5.590322 16.660449 7.779174-14.461363 4.068665-27.884071 9.736758-40.462551 16.569374a650.659013 650.659013 0 0 0 13.945617 11.624758c18.156522-9.05626 38.214347-15.422248 60.815087-17.630542 12.45773-1.211595 23.575952 1.355881 31.787984 11.290137a86.813205 86.813205 0 0 1 3.620457 5.069459c0.369414 0.553609 0.718361 1.12973 1.077542 1.694595a93.545536 93.545536 0 0 1 3.400446 5.783727 99.544157 99.544157 0 0 1 2.00875 3.941775c0.310062 0.64059 0.630357 1.27197 0.928139 1.920746 0.076748 0.168846 0.141216 0.344854 0.216941 0.5137 8.330736 18.469654 11.512195 40.433898 6.511297 60.570517a678.337399 678.337399 0 0 0 18.679432 9.664103c7.841595-23.614837 4.308119-50.332339-8.099469-74.810846-5.814426-11.471262-13.696953-21.887496-22.394033-29.240974 9.725502-1.49505 19.075451-3.963265 27.619035-7.42511 0.809435-0.328481 1.977028-0.817622 2.656503-0.817622 1.909489 0 2.437515 1.282203 3.171225 2.219551l0.944512 1.205455c4.866844 6.209422 9.895371 12.626575 15.10093 18.687618a67.845201 67.845201 0 0 0 9.65694 9.222035c1.771343 1.38658 2.950192 2.00568 3.825119 2.00568 0.837064 0 1.801019-0.566912 3.676739-2.163269 9.775644-8.316409 17.523095-18.331507 23.90034-27.155476 1.564635-2.165316 2.51017-3.470031 4.496407-3.470032 0.9967 0 1.995447 0.353041 3.822049 1.00284 13.041014 4.64274 26.319435 6.756891 39.33589 7.858992 0.731664 0.061398 1.467421 0.134053 2.197038 0.189312 0.328481 0.024559 0.708128 0.023536 1.048889 0.041955 10.636245 23.083741 14.59644 47.223534 13.241582 71.069639 0.855484-0.529049 1.722224-1.071402 2.585895-1.610684a725.748199 725.748199 0 0 0 13.024641-8.322549 192.634322 192.634322 0 0 0-1.562588-17.350157c-2.211365-16.1007-6.515391-31.422663-12.904915-44.345997 19.281135-2.009773 44.560892-8.378831 56.520272-15.027252 48.279586-26.840298 76.027557-77.069283 70.423932-130.304741z m-71.131037-112.77346c2.888793-1.910513 5.730515-3.78828 8.582469-5.649673 2.399653-1.569752 4.806469-3.137457 7.273661-4.600785 0.808412-0.475837 1.597381-0.720408 2.346441-0.720408 0.813528 0 1.566682 0.301875 2.113127 0.855484 0.641613 0.649799 0.962931 1.570775 0.946558 2.736321-0.080841 6.607488-0.23536 13.214976-0.387833 19.823488l-0.110517 4.749164c-0.021489 0.76748-0.027629 3.692089-0.270153 3.957125l-1.451048-1.102101-25.215288-15.974833 6.172583-4.073782z m-318.612525-9.91993c0.545422-0.553609 1.299599-0.855484 2.114151-0.855484 0.74906 0 1.538029 0.24457 2.345418 0.720407 2.467191 1.463328 4.874007 3.031033 7.274684 4.601808 2.850931 1.861394 5.692652 3.739161 8.581445 5.649674l6.172583 4.073782-25.215288 15.974833-1.451048 1.103124c-0.242524-0.26606-0.248663-3.190669-0.270153-3.958148l-0.11154-4.749164c-0.151449-6.607488-0.305969-13.216-0.385787-19.822465-0.016373-1.167592 0.303922-2.088568 0.945535-2.738367z m171.294295 274.072099l-19.023262-21.574365c0.070608-0.033769 5.024433-2.444679 9.896394-5.408173 2.189875-1.332345 8.875135-6.253424 9.228175-6.01397 3.702322 2.495844 7.560186 4.983501 11.44568 7.674796l5.131881 3.546779-16.678868 21.774933z m185.709609-78.042447c-0.779759 1.323135-1.747807 2.972705-3.604085 2.972704-0.161682 0-0.318248-0.036839-0.475837-0.061398-0.906649-0.140193-1.766226-0.635473-2.809999-1.270946-5.912663-3.605108-11.230786-6.693446-16.256242-9.435907-0.037862-0.01842-0.195451-0.062422-0.471744-0.062422a3.151783 3.151783 0 0 0-0.970095 0.158613c-0.062422 0.305969-0.081864 0.766456-0.022512 0.959861 2.529613 8.229428 5.179976 16.423041 7.857968 24.608468 0.076748 0.23536 0.12996 0.500397 0.190335 0.758269-12.230556 14.024411-27.855418 25.659403-45.179992 32.769335l0.017396 0.00921c-0.344854 0.116657-0.681522 0.25992-1.028423 0.373506-9.249665 3.02387-18.777669 4.889357-28.326138 5.542227l-0.540306 0.019443c-2.190899 0-3.648087-1.003863-4.589528-3.164063a868.751147 868.751147 0 0 0-9.118682-20.277836c-0.073678-0.155543-0.292666-0.369414-0.543376-0.582261-0.251733 0.279363-0.465604 0.548492-0.533142 0.75213-2.336208 7.101745-4.323469 13.469779-6.075369 19.462261-0.744967 2.556219-2.270716 3.849678-4.535293 3.849677-0.402159 0-0.839111-0.044002-1.312902-0.132006-1.839905-0.355087-4.683672-0.553609-6.53074-0.876973-3.964288-0.701988-6.421246-1.062192-10.420327-2.043543-10.744715-2.63092-21.213137-6.619768-32.17991-13.178137-1.644453-0.983397-5.40715-3.284813-8.173147-5.209652-3.52836-2.455935-8.15882-5.934153-9.908674-7.239891-0.286526-0.213871-10.114358 8.976442-20.534685 14.187117-7.664563 3.832282-15.700587 7.640004-21.964244 9.807366-5.671163 1.961678-11.663644 3.247974-17.572214 4.290723a104.448864 104.448864 0 0 1-3.813863 0.596588c-1.199315 0.160659-2.403746 0.324388-3.588734 0.480954-0.667196 0.088004-1.337461 0.174985-1.998517 0.265036-0.644683 0.050142-2.540869 0.075725-2.857071 0.075725-2.301416 0-4.101411-2.871397-4.852518-5.437849-1.752924-5.977132-3.740184-12.342096-6.077416-19.462261-0.064468-0.202615-0.25071-0.487094-0.428765-0.697895-0.215918 0.169869-0.449231 0.416486-0.532119 0.593518a772.72 772.72 0 0 0-8.990769 20.041452c-0.366344 0.848321-1.547239 4.288676-4.706185 4.288676-0.325411 0-0.673335-0.029676-1.045819-0.084935-1.661849-0.261966-11.011798-1.301645-21.621436-4.326538 0.218988 0.023536 0.416486 0.031722 0.463557-0.069585-19.446911-7.388271-39.385009-19.183921-52.749388-35.395138 0.084934-0.557702 0.183172-1.12052 0.391927-1.737574 2.828418-8.373715 5.081739-15.32094 7.085372-21.855774 0.158612-0.514723 0.194428-1.364067 0.152472-1.909489a4.737908 4.737908 0 0 0-1.12359-0.1361c-0.49221 0-0.941442 0.080841-1.197268 0.221034-4.579295 2.436492-9.508561 5.320169-15.067161 8.815783-0.422625 0.26606-0.783853 0.415462-1.155312 0.582261a7.41897 7.41897 0 0 1-0.862647 0.322342c-0.3776 0.103354-0.751107 0.201591-1.110288 0.201591-2.022053 0-3.179412-1.582031-3.876283-2.777253-18.561751-31.868825-21.328771-65.946968-9.987469-100.839663 0.626263-1.924839 1.430582-3.077082 3.441379-3.319605 2.845815-0.341784 5.757121-0.722454 8.683776-1.11745a623.594611 623.594611 0 0 0 11.533684-1.657756c0.450255-0.067538 0.977257-0.310062 1.274017-0.512677a4.006244 4.006244 0 0 0-0.711198-1.121543 302.927287 302.927287 0 0 0-4.317329-4.457522c-0.662079-0.672312-1.328251-1.351787-1.980098-2.00261l-0.002046-0.002047a269.813099 269.813099 0 0 0-4.383844-4.301979c-2.113127-2.020006-2.37407-4.077875-0.814552-6.477528a135.147026 135.147026 0 0 1 9.045004-12.384052c2.494821-3.032056 12.474103-12.357446 14.941294-14.263865 7.398504-5.720282 15.199167-11.357675 20.498869-14.127766 0 0 9.875928-5.616928 15.521509-7.340175 6.569626-2.00568 13.30605-3.916193 20.424168-5.050016a9.377578 9.377578 0 0 1 1.462305-0.128937c3.094478 0 4.337795 2.119267 5.002944 3.712555a364.836289 364.836289 0 0 0 2.908236 6.756891l0.019443 0.045026a524.514012 524.514012 0 0 0 2.603291 5.812379l0.139169 0.306992c0.358157 0.782829 0.701988 1.537006 1.041726 2.275833 0.471744 1.025353 0.930185 2.015913 1.357927 2.935865 0.080841 0.177032 0.352017 0.420579 0.645707 0.664126 0.339738-0.310062 0.689708-0.649799 0.762363-0.855484a671.362544 671.362544 0 0 0 2.108011-6.173606c0.026606-0.075725 0.049119-0.148379 0.074701-0.224104 0.644683-1.918699 1.248434-3.755534 1.823532-5.533017a401.307945 401.307945 0 0 0 2.550079-8.159844c0.857531-2.865257 2.517333-4.14439 5.375427-4.14439 0.231267 0 0.471744 0.007163 0.726547 0.023536 20.070104 1.191128 39.047318 5.598508 55.183834 14.897292 7.611352 4.120854 15.380292 9.131985 22.633486 15.56858 1.567705-1.384533 11.389398-8.478092 16.186658-11.345395 11.208273-7.072069 23.952528-12.3247 40.966017-15.834641a146.483212 146.483212 0 0 1 12.054547-1.73655c2.022053-0.199545 4.316306-0.258896 6.334265-0.51063 0.279363-0.032746 0.542352-0.046049 0.788969-0.046049 2.070148 0 2.617617 0.542352 3.322675 2.746554 0.89744 2.820232 1.831718 5.624091 2.754741 8.433066 0.62524 1.90028 1.235131 3.805676 1.864464 5.704933l1.743713 5.284353c0.086981 0.268106 0.159636 0.548492 0.230244 0.824785 0.088004 0.349971 0.188288 0.744967 0.39909 1.050935 0.177032 0.258896 0.48914 0.711198 0.63445 0.984421 0.198521-0.195451 0.414439-0.460488 0.518816-0.683569 0.849344-1.836835 1.738597-3.773953 2.63706-5.744841l0.295735-0.650823a407.41913 407.41913 0 0 0 2.774183-6.239098 251.464195 251.464195 0 0 0 2.415003-5.734608c0.683569-1.688455 1.968841-3.933589 5.219885-3.933589 0.487094 0 1.023306 0.047072 1.610684 0.143263 30.079062 4.762467 54.847166 19.579941 73.709769 43.998074 0.74906 0.982374 1.505283 1.951445 2.236947 2.963494 1.49505 2.072195 2.750647 4.324492 4.252861 6.392594 0.069585 0.095167 0.180102 0.271176 0.326434 0.511653 1.11438 2.006703 0.840134 3.837398-1.00898 5.55246-2.293229 2.12336-4.487198 4.351098-6.686282 6.578835l-2.307556 2.330068c-0.532119 0.531096-1.069355 1.061169-1.5104 1.67106-0.598634 0.828878-0.629333 1.355881-0.555655 1.533936 0.093121 0.209778 0.532119 0.471744 1.318018 0.581237 5.218862 0.744967 10.450003 1.419326 15.683191 2.078335 1.344624 0.169869 2.683109 0.37146 4.028757 0.533143 1.404999 0.170892 2.408863 0.682545 3.154853 1.506307 0.617054 1.212618 1.038656 2.076288 1.119497 2.325975 3.544733 11.048637 5.638417 21.936615 6.290263 32.664957 1.252527 23.360034-4.487198 46.020126-17.21508 67.681472z" p-id="5766" fill="#FF6B01"></path></svg>